<svg width="87" height="87" viewBox="0 0 87 87" fill="none" xmlns="http://www.w3.org/2000/svg">
<path d="M43.5 87C67.5244 87 87 67.5244 87 43.5C87 19.4756 67.5244 0 43.5 0C19.4756 0 0 19.4756 0 43.5C0 67.5244 19.4756 87 43.5 87Z" fill="#1B67B1"/>
<path d="M43.873 51.7028C50.2566 51.7028 55.4316 46.5279 55.4316 40.1443C55.4316 33.7606 50.2566 28.5857 43.873 28.5857C37.4894 28.5857 32.3145 33.7606 32.3145 40.1443C32.3145 46.5279 37.4894 51.7028 43.873 51.7028Z" fill="#89C0E5"/>
<path d="M43.873 48.2228C37.5345 48.2228 32.3145 53.3186 32.3145 59.7814V72.3343C32.3145 74.3228 33.9302 75.9386 35.9187 75.9386H51.703C53.6916 75.9386 55.3073 74.3228 55.3073 72.3343V59.6571C55.3073 53.3186 50.2116 48.2228 43.873 48.2228Z" fill="#89C0E5"/>
<path d="M62.2674 60.9H24.7331C21.3774 60.9 18.6431 58.1657 18.6431 54.81V28.4614C18.6431 25.1057 21.3774 22.3714 24.7331 22.3714H62.2674C65.6231 22.3714 68.3574 25.1057 68.3574 28.4614V54.81C68.3574 58.1657 65.6231 60.9 62.2674 60.9Z" stroke="#F0FCFE" stroke-width="4" stroke-miterlimit="10"/>
</svg>
