<svg width="86" height="86" viewBox="0 0 86 86" fill="none" xmlns="http://www.w3.org/2000/svg">
<path d="M43 86C66.7482 86 86 66.7482 86 43C86 19.2518 66.7482 0 43 0C19.2518 0 0 19.2518 0 43C0 66.7482 19.2518 86 43 86Z" fill="#1B67B1"/>
<path d="M42.9999 43H17.5908V22.4772C17.5908 19.7409 19.7408 17.5909 22.4772 17.5909H42.9999V43Z" fill="#89C0E5"/>
<path d="M42.7067 68.4091H22.4772C19.7408 68.4091 17.5908 66.2591 17.5908 63.5227V43.2932C17.5908 43.0977 17.6885 43 17.884 43H42.7067C42.9022 43 42.9999 43.0977 42.9999 43.2932V68.1159C42.9999 68.3114 42.9022 68.4091 42.7067 68.4091Z" fill="#F0FCFE"/>
<path d="M63.5227 68.4091H44.2705C43.5864 68.4091 43 67.8227 43 67.1386V44.2705C43 43.5864 43.5864 43 44.2705 43H67.1386C67.8227 43 68.4091 43.5864 68.4091 44.2705V63.5227C68.4091 66.2591 66.2591 68.4091 63.5227 68.4091Z" fill="#89C0E5"/>
<path d="M68.4091 43H43V17.5909H63.5227C66.2591 17.5909 68.4091 19.7409 68.4091 22.4772V43Z" fill="#F0FCFE"/>
<path d="M42.9999 35.1818C46.2383 35.1818 48.8635 32.5566 48.8635 29.3182C48.8635 26.0798 46.2383 23.4545 42.9999 23.4545C39.7615 23.4545 37.1362 26.0798 37.1362 29.3182C37.1362 32.5566 39.7615 35.1818 42.9999 35.1818Z" fill="#89C0E5"/>
<path d="M55.7045 48.8636C58.9429 48.8636 61.5681 46.2384 61.5681 43C61.5681 39.7616 58.9429 37.1364 55.7045 37.1364C52.4661 37.1364 49.8408 39.7616 49.8408 43C49.8408 46.2384 52.4661 48.8636 55.7045 48.8636Z" fill="#F0FCFE"/>
<path d="M30.2953 48.8636C33.5337 48.8636 36.1589 46.2384 36.1589 43C36.1589 39.7616 33.5337 37.1364 30.2953 37.1364C27.0569 37.1364 24.4316 39.7616 24.4316 43C24.4316 46.2384 27.0569 48.8636 30.2953 48.8636Z" fill="#F0FCFE"/>
<path d="M42.9999 61.5682C46.2383 61.5682 48.8635 58.9429 48.8635 55.7045C48.8635 52.4661 46.2383 49.8409 42.9999 49.8409C39.7615 49.8409 37.1362 52.4661 37.1362 55.7045C37.1362 58.9429 39.7615 61.5682 42.9999 61.5682Z" fill="#89C0E5"/>
</svg>
