<svg width="87" height="87" viewBox="0 0 87 87" fill="none" xmlns="http://www.w3.org/2000/svg">
<path d="M43.5 87C67.5244 87 87 67.5244 87 43.5C87 19.4756 67.5244 0 43.5 0C19.4756 0 0 19.4756 0 43.5C0 67.5244 19.4756 87 43.5 87Z" fill="#1B67B1"/>
<path d="M57.7931 54.6857C68.4325 54.6857 77.0574 47.2293 77.0574 38.0314C77.0574 28.8335 68.4325 21.3771 57.7931 21.3771C47.1537 21.3771 38.5288 28.8335 38.5288 38.0314C38.5288 47.2293 47.1537 54.6857 57.7931 54.6857Z" fill="#89C0E5"/>
<path d="M72.7073 55.9286L66.2445 52.5729C65.8716 52.3243 65.8716 51.8271 66.2445 51.5786L72.4588 47.6014C72.8316 47.3529 73.3288 47.6014 73.3288 48.0986L73.5773 55.4314C73.5773 55.9286 73.2045 56.1771 72.7073 55.9286Z" fill="#89C0E5"/>
<path d="M36.7888 66.7414C49.762 66.7414 60.2788 57.6157 60.2788 46.3586C60.2788 35.1014 49.762 25.9757 36.7888 25.9757C23.8157 25.9757 13.2988 35.1014 13.2988 46.3586C13.2988 57.6157 23.8157 66.7414 36.7888 66.7414Z" fill="#F0FCFE"/>
<path d="M18.519 68.2329L26.4732 64.0071C26.9704 63.7586 26.9704 63.0129 26.4732 62.7643L18.8918 57.9172C18.3947 57.6686 17.7732 57.9172 17.7732 58.5386L17.4004 67.6114C17.4004 68.1086 18.0218 68.4814 18.519 68.2329Z" fill="#F0FCFE"/>
<path d="M37.2855 49.7143C38.6583 49.7143 39.7712 48.6014 39.7712 47.2286C39.7712 45.8558 38.6583 44.7429 37.2855 44.7429C35.9127 44.7429 34.7998 45.8558 34.7998 47.2286C34.7998 48.6014 35.9127 49.7143 37.2855 49.7143Z" fill="#89C0E5"/>
<path d="M28.5858 49.7143C29.9586 49.7143 31.0715 48.6014 31.0715 47.2286C31.0715 45.8558 29.9586 44.7429 28.5858 44.7429C27.213 44.7429 26.1001 45.8558 26.1001 47.2286C26.1001 48.6014 27.213 49.7143 28.5858 49.7143Z" fill="#89C0E5"/>
<path d="M45.9857 49.7143C47.3585 49.7143 48.4714 48.6014 48.4714 47.2286C48.4714 45.8558 47.3585 44.7429 45.9857 44.7429C44.6129 44.7429 43.5 45.8558 43.5 47.2286C43.5 48.6014 44.6129 49.7143 45.9857 49.7143Z" fill="#89C0E5"/>
</svg>
