<svg width="285" height="285" viewBox="0 0 285 285" fill="none" xmlns="http://www.w3.org/2000/svg">
<path d="M142.5 285C221.201 285 285 221.201 285 142.5C285 63.7994 221.201 0 142.5 0C63.7994 0 0 63.7994 0 142.5C0 221.201 63.7994 285 142.5 285Z" fill="#1579BC"/>
<path d="M189.322 179.143C224.175 179.143 252.429 154.717 252.429 124.586C252.429 94.4546 224.175 70.0286 189.322 70.0286C154.469 70.0286 126.215 94.4546 126.215 124.586C126.215 154.717 154.469 179.143 189.322 179.143Z" fill="#91E9FF"/>
<path d="M238.179 183.214L217.008 172.221C215.786 171.407 215.786 169.779 217.008 168.964L237.365 155.936C238.586 155.121 240.215 155.936 240.215 157.564L241.029 181.586C241.029 183.214 239.808 184.029 238.179 183.214Z" fill="#91E9FF"/>
<path d="M120.515 218.636C163.013 218.636 197.465 188.741 197.465 151.864C197.465 114.987 163.013 85.0928 120.515 85.0928C78.0166 85.0928 43.5649 114.987 43.5649 151.864C43.5649 188.741 78.0166 218.636 120.515 218.636Z" fill="#F0FCFE"/>
<path d="M60.6657 223.521L86.7229 209.679C88.3515 208.864 88.3515 206.421 86.7229 205.607L61.8872 189.729C60.2586 188.914 58.2229 189.729 58.2229 191.764L57.0015 221.486C57.0015 223.114 59.0372 224.336 60.6657 223.521Z" fill="#F0FCFE"/>
<path d="M122.142 162.857C126.64 162.857 130.285 159.211 130.285 154.714C130.285 150.217 126.64 146.571 122.142 146.571C117.645 146.571 114 150.217 114 154.714C114 159.211 117.645 162.857 122.142 162.857Z" fill="#91E9FF"/>
<path d="M93.6433 162.857C98.1405 162.857 101.786 159.211 101.786 154.714C101.786 150.217 98.1405 146.571 93.6433 146.571C89.1462 146.571 85.5005 150.217 85.5005 154.714C85.5005 159.211 89.1462 162.857 93.6433 162.857Z" fill="#91E9FF"/>
<path d="M150.643 162.857C155.14 162.857 158.786 159.211 158.786 154.714C158.786 150.217 155.14 146.571 150.643 146.571C146.146 146.571 142.5 150.217 142.5 154.714C142.5 159.211 146.146 162.857 150.643 162.857Z" fill="#91E9FF"/>
</svg>
