<svg width="86" height="86" viewBox="0 0 86 86" fill="none" xmlns="http://www.w3.org/2000/svg">
<path d="M43 86C66.7482 86 86 66.7482 86 43C86 19.2518 66.7482 0 43 0C19.2518 0 0 19.2518 0 43C0 66.7482 19.2518 86 43 86Z" fill="#1B67B1"/>
<path d="M25.4316 35.9972C26.1687 33.6629 24.4487 17.3229 41.1573 14.8657C57.8659 12.4086 64.623 21.0086 64.3773 30.5914C63.8859 40.1743 57.743 47.9143 57.743 53.8114C57.743 59.5857 59.463 63.64 57.743 65.7286C56.023 67.8172 39.0687 71.5029 37.3487 70.1514C35.6287 68.8 38.3316 59.5857 37.3487 58.6029C36.3659 57.62 28.503 59.34 26.4144 57.62C24.3259 55.9 26.0459 48.7743 25.4316 47.7915C24.6944 46.8086 20.6401 46.44 20.2716 45.0886C20.0259 43.4915 24.6944 38.4543 25.4316 35.9972Z" fill="#89C0E5"/>
<path d="M42.6685 17.6307L40.5874 17.8076L41.9707 34.0887L44.0517 33.9119L42.6685 17.6307Z" fill="#BEDEE5"/>
<path d="M40.6941 17.3213L39.4858 15.6177L26.1573 25.0704L27.3655 26.774L40.6941 17.3213Z" fill="#BEDEE5"/>
<path d="M41.2016 36.3316L42.0596 34.4274L27.1624 27.715L26.3044 29.6191L41.2016 36.3316Z" fill="#BEDEE5"/>
<path d="M61.1965 39.3522L61.394 37.2731L45.1276 35.7277L44.9301 37.8069L61.1965 39.3522Z" fill="#BEDEE5"/>
<path d="M58.2139 21.428L58.7026 19.3975L42.8169 15.5739L42.3282 17.6044L58.2139 21.428Z" fill="#BEDEE5"/>
<path d="M59.5933 22.3857L58.1802 20.8477L43.7951 34.0646L45.2083 35.6026L59.5933 22.3857Z" fill="#BEDEE5"/>
<path d="M60.5515 21.8469L58.5166 22.3168L62.1931 38.2369L64.228 37.767L60.5515 21.8469Z" fill="#BEDEE5"/>
<path d="M25.5543 30.7143C27.4541 30.7143 28.9943 29.1742 28.9943 27.2743C28.9943 25.3744 27.4541 23.8343 25.5543 23.8343C23.6544 23.8343 22.1143 25.3744 22.1143 27.2743C22.1143 29.1742 23.6544 30.7143 25.5543 30.7143Z" fill="#F0FCFE"/>
<path d="M41.2798 19.1657C43.1797 19.1657 44.7198 17.6256 44.7198 15.7257C44.7198 13.8258 43.1797 12.2857 41.2798 12.2857C39.38 12.2857 37.8398 13.8258 37.8398 15.7257C37.8398 17.6256 39.38 19.1657 41.2798 19.1657Z" fill="#F0FCFE"/>
<path d="M43.3687 39.56C45.2686 39.56 46.8087 38.0199 46.8087 36.12C46.8087 34.2201 45.2686 32.68 43.3687 32.68C41.4689 32.68 39.9287 34.2201 39.9287 36.12C39.9287 38.0199 41.4689 39.56 43.3687 39.56Z" fill="#F0FCFE"/>
<path d="M58.9712 24.5714C60.8711 24.5714 62.4112 23.0313 62.4112 21.1314C62.4112 19.2315 60.8711 17.6914 58.9712 17.6914C57.0714 17.6914 55.5312 19.2315 55.5312 21.1314C55.5312 23.0313 57.0714 24.5714 58.9712 24.5714Z" fill="#F0FCFE"/>
<path d="M63.7628 42.2629C65.6626 42.2629 67.2028 40.7227 67.2028 38.8229C67.2028 36.923 65.6626 35.3829 63.7628 35.3829C61.8629 35.3829 60.3228 36.923 60.3228 38.8229C60.3228 40.7227 61.8629 42.2629 63.7628 42.2629Z" fill="#F0FCFE"/>
</svg>
