<svg width="538" height="473" viewBox="0 0 538 473" fill="none" xmlns="http://www.w3.org/2000/svg">
<path d="M417.558 178.016C450.216 205.519 522.863 215.23 535.287 235.635C547.89 255.699 499.431 286.453 483.259 340.604C466.578 394.923 481.827 473.321 458.046 472.195C434.265 471.069 373.005 390.59 321.637 376.35C270.599 362.282 228.945 414.622 187.183 430.183C145.42 445.743 101.462 425.377 61.6295 391.516C21.9759 357.314 -13.5523 309.617 6.64554 271.048C26.3347 232.647 102.259 203.206 137.358 160.252C172.306 116.784 166.099 59.6326 186.53 29.4451C206.631 -0.914927 253.698 -4.1384 293.794 5.94963C333.891 16.0377 367.525 39.2683 380.195 72.8443C393.195 106.593 385.051 151.028 417.558 178.016Z" fill="#79ECFF"/>
</svg>
