<svg width="250" height="250" viewBox="0 0 250 250" fill="none" xmlns="http://www.w3.org/2000/svg">
<path d="M125 250C194.036 250 250 194.036 250 125C250 55.9644 194.036 0 125 0C55.9644 0 0 55.9644 0 125C0 194.036 55.9644 250 125 250Z" fill="#1579BC"/>
<path d="M126.072 148.571C144.416 148.571 159.286 133.701 159.286 115.357C159.286 97.0134 144.416 82.1428 126.072 82.1428C107.728 82.1428 92.8579 97.0134 92.8579 115.357C92.8579 133.701 107.728 148.571 126.072 148.571Z" fill="#91E9FF"/>
<path d="M126.072 138.571C107.858 138.571 92.8579 153.214 92.8579 171.786V207.857C92.8579 213.571 97.5008 218.214 103.215 218.214H148.572C154.286 218.214 158.929 213.571 158.929 207.857V171.429C158.929 153.214 144.286 138.571 126.072 138.571Z" fill="#91E9FF"/>
<path d="M178.929 175H71.0723C61.4294 175 53.5723 167.143 53.5723 157.5V81.7856C53.5723 72.1428 61.4294 64.2856 71.0723 64.2856H178.929C188.572 64.2856 196.429 72.1428 196.429 81.7856V157.5C196.429 167.143 188.572 175 178.929 175Z" stroke="#F0FCFE" stroke-width="11.4943" stroke-miterlimit="10"/>
</svg>
