<svg width="259" height="259" viewBox="0 0 259 259" fill="none" xmlns="http://www.w3.org/2000/svg">
<path d="M129.5 259C201.021 259 259 201.021 259 129.5C259 57.9791 201.021 0 129.5 0C57.9791 0 0 57.9791 0 129.5C0 201.021 57.9791 259 129.5 259Z" fill="#1579BC"/>
<path d="M129.5 129.5H52.9775V67.6931C52.9775 59.4522 59.4525 52.9772 67.6934 52.9772H129.5V129.5Z" fill="#91E9FF"/>
<path d="M128.617 206.023H67.693C59.4521 206.023 52.9771 199.548 52.9771 191.307V130.383C52.9771 129.794 53.2714 129.5 53.86 129.5H128.617C129.205 129.5 129.5 129.794 129.5 130.383V205.14C129.5 205.728 129.205 206.023 128.617 206.023Z" fill="#F0FCFE"/>
<path d="M191.307 206.023H133.326C131.266 206.023 129.5 204.257 129.5 202.197V133.326C129.5 131.266 131.266 129.5 133.326 129.5H202.197C204.257 129.5 206.023 131.266 206.023 133.326V191.307C206.023 199.548 199.548 206.023 191.307 206.023Z" fill="#91E9FF"/>
<path d="M206.023 129.5H129.5V52.9772H191.307C199.548 52.9772 206.023 59.4522 206.023 67.6931V129.5Z" fill="#F0FCFE"/>
<path d="M129.499 105.954C139.252 105.954 147.159 98.0482 147.159 88.2954C147.159 78.5425 139.252 70.6363 129.499 70.6363C119.747 70.6363 111.84 78.5425 111.84 88.2954C111.84 98.0482 119.747 105.954 129.499 105.954Z" fill="#91E9FF"/>
<path d="M167.761 147.159C177.514 147.159 185.42 139.253 185.42 129.5C185.42 119.747 177.514 111.841 167.761 111.841C158.008 111.841 150.102 119.747 150.102 129.5C150.102 139.253 158.008 147.159 167.761 147.159Z" fill="#F0FCFE"/>
<path d="M91.2382 147.159C100.991 147.159 108.897 139.253 108.897 129.5C108.897 119.747 100.991 111.841 91.2382 111.841C81.4853 111.841 73.5791 119.747 73.5791 129.5C73.5791 139.253 81.4853 147.159 91.2382 147.159Z" fill="#F0FCFE"/>
<path d="M129.499 185.42C139.252 185.42 147.159 177.514 147.159 167.761C147.159 158.008 139.252 150.102 129.499 150.102C119.747 150.102 111.84 158.008 111.84 167.761C111.84 177.514 119.747 185.42 129.499 185.42Z" fill="#91E9FF"/>
</svg>
