<svg width="174" height="174" viewBox="0 0 174 174" fill="none" xmlns="http://www.w3.org/2000/svg">
<path d="M87 174C135.049 174 174 135.049 174 87C174 38.9512 135.049 0 87 0C38.9512 0 0 38.9512 0 87C0 135.049 38.9512 174 87 174Z" fill="#1579BC"/>
<path d="M51.4545 72.8314C52.946 68.1086 49.466 35.0486 83.2717 30.0772C117.077 25.1057 130.749 42.5057 130.252 61.8943C129.257 81.2829 116.829 96.9429 116.829 108.874C116.829 120.557 120.309 128.76 116.829 132.986C113.349 137.211 79.046 144.669 75.566 141.934C72.086 139.2 77.5545 120.557 75.566 118.569C73.5774 116.58 57.6688 120.06 53.4431 116.58C49.2174 113.1 52.6974 98.6829 51.4545 96.6943C49.9631 94.7057 41.7603 93.96 41.0145 91.2257C40.5174 87.9943 49.9631 77.8029 51.4545 72.8314Z" fill="#91E9FF"/>
<path d="M86.3291 35.6715L82.1187 36.0292L84.9174 68.9702L89.1279 68.6125L86.3291 35.6715Z" fill="#5AB6F4"/>
<path d="M82.3347 35.0455L79.8901 31.5986L52.9231 50.7238L55.3677 54.1707L82.3347 35.0455Z" fill="#5AB6F4"/>
<path d="M83.3612 73.5081L85.0972 69.6555L54.9564 56.0745L53.2204 59.9271L83.3612 73.5081Z" fill="#5AB6F4"/>
<path d="M123.816 79.6197L124.216 75.413L91.3046 72.2864L90.905 76.4931L123.816 79.6197Z" fill="#5AB6F4"/>
<path d="M117.782 43.3543L118.771 39.246L86.6296 31.51L85.6408 35.6182L117.782 43.3543Z" fill="#5AB6F4"/>
<path d="M120.572 45.2921L117.713 42.1802L88.6087 68.9214L91.4679 72.0332L120.572 45.2921Z" fill="#5AB6F4"/>
<path d="M122.511 44.2019L118.394 45.1526L125.833 77.363L129.95 76.4122L122.511 44.2019Z" fill="#5AB6F4"/>
<path d="M51.7027 62.1428C55.5466 62.1428 58.6627 59.0267 58.6627 55.1828C58.6627 51.3389 55.5466 48.2228 51.7027 48.2228C47.8588 48.2228 44.7427 51.3389 44.7427 55.1828C44.7427 59.0267 47.8588 62.1428 51.7027 62.1428Z" fill="#F0FCFE"/>
<path d="M83.5196 38.7771C87.3635 38.7771 90.4796 35.661 90.4796 31.8171C90.4796 27.9732 87.3635 24.8571 83.5196 24.8571C79.6757 24.8571 76.5596 27.9732 76.5596 31.8171C76.5596 35.661 79.6757 38.7771 83.5196 38.7771Z" fill="#F0FCFE"/>
<path d="M87.7461 80.04C91.59 80.04 94.7061 76.9239 94.7061 73.08C94.7061 69.2361 91.59 66.12 87.7461 66.12C83.9022 66.12 80.7861 69.2361 80.7861 73.08C80.7861 76.9239 83.9022 80.04 87.7461 80.04Z" fill="#F0FCFE"/>
<path d="M119.314 49.7143C123.158 49.7143 126.274 46.5982 126.274 42.7543C126.274 38.9104 123.158 35.7943 119.314 35.7943C115.47 35.7943 112.354 38.9104 112.354 42.7543C112.354 46.5982 115.47 49.7143 119.314 49.7143Z" fill="#F0FCFE"/>
<path d="M129.008 85.5086C132.852 85.5086 135.968 82.3925 135.968 78.5486C135.968 74.7047 132.852 71.5886 129.008 71.5886C125.164 71.5886 122.048 74.7047 122.048 78.5486C122.048 82.3925 125.164 85.5086 129.008 85.5086Z" fill="#F0FCFE"/>
</svg>
